<mxfile host="app.diagrams.net" agent="Mozilla/5.0 (Macintosh; Intel Mac OS X 10_15_7) AppleWebKit/537.36 (KHTML, like Gecko) Chrome/131.0.0.0 Safari/537.36" version="26.0.10">
  <diagram id="prtHgNgQTEPvFCAcTncT" name="Page-1">
    <mxGraphModel dx="2261" dy="785" grid="1" gridSize="10" guides="1" tooltips="1" connect="1" arrows="0" fold="1" page="1" pageScale="1" pageWidth="827" pageHeight="1169" math="0" shadow="0">
      <root>
        <mxCell id="0" />
        <mxCell id="1" parent="0" />
        <mxCell id="7jdN5EIBADQZFfxnS79Z-51" value="问题提出" style="whiteSpace=wrap;strokeWidth=2;fillColor=#f8cecc;strokeColor=#b85450;" vertex="1" parent="1">
          <mxGeometry x="143" y="30" width="124" height="54" as="geometry" />
        </mxCell>
        <mxCell id="7jdN5EIBADQZFfxnS79Z-52" value="选题背景与意义" style="rounded=1;arcSize=20;strokeWidth=2;fillColor=#dae8fc;strokeColor=#6c8ebf;" vertex="1" parent="1">
          <mxGeometry x="-250" y="157" width="142" height="54" as="geometry" />
        </mxCell>
        <mxCell id="7jdN5EIBADQZFfxnS79Z-53" value="国内外研究综述" style="rounded=1;arcSize=20;strokeWidth=2;fillColor=#dae8fc;strokeColor=#6c8ebf;" vertex="1" parent="1">
          <mxGeometry x="-58" y="157" width="142" height="54" as="geometry" />
        </mxCell>
        <mxCell id="7jdN5EIBADQZFfxnS79Z-54" value="研究框架与内容" style="rounded=1;arcSize=20;strokeWidth=2;fillColor=#dae8fc;strokeColor=#6c8ebf;" vertex="1" parent="1">
          <mxGeometry x="134" y="157" width="142" height="54" as="geometry" />
        </mxCell>
        <mxCell id="7jdN5EIBADQZFfxnS79Z-55" value="研究思路与方法" style="rounded=1;arcSize=20;strokeWidth=2;fillColor=#dae8fc;strokeColor=#6c8ebf;" vertex="1" parent="1">
          <mxGeometry x="326" y="157" width="142" height="54" as="geometry" />
        </mxCell>
        <mxCell id="7jdN5EIBADQZFfxnS79Z-56" value="研究创新与不足" style="rounded=1;arcSize=20;strokeWidth=2;fillColor=#dae8fc;strokeColor=#6c8ebf;" vertex="1" parent="1">
          <mxGeometry x="518" y="157" width="142" height="54" as="geometry" />
        </mxCell>
        <mxCell id="7jdN5EIBADQZFfxnS79Z-107" style="edgeStyle=elbowEdgeStyle;rounded=0;orthogonalLoop=1;jettySize=auto;html=1;exitX=0.5;exitY=1;exitDx=0;exitDy=0;endArrow=none;startFill=0;elbow=vertical;fillColor=#dae8fc;strokeColor=#6c8ebf;" edge="1" parent="1" source="7jdN5EIBADQZFfxnS79Z-57" target="7jdN5EIBADQZFfxnS79Z-58">
          <mxGeometry relative="1" as="geometry" />
        </mxCell>
        <mxCell id="7jdN5EIBADQZFfxnS79Z-57" value="研究基础" style="whiteSpace=wrap;strokeWidth=2;fillColor=#dae8fc;strokeColor=#6c8ebf;" vertex="1" parent="1">
          <mxGeometry x="143" y="250" width="124" height="54" as="geometry" />
        </mxCell>
        <mxCell id="7jdN5EIBADQZFfxnS79Z-58" value="理论基础" style="rounded=1;arcSize=20;strokeWidth=2;fillColor=#dae8fc;strokeColor=#6c8ebf;" vertex="1" parent="1">
          <mxGeometry x="158" y="377" width="94" height="54" as="geometry" />
        </mxCell>
        <mxCell id="7jdN5EIBADQZFfxnS79Z-59" value="核心概念" style="rounded=1;arcSize=20;strokeWidth=2;fillColor=#dae8fc;strokeColor=#6c8ebf;" vertex="1" parent="1">
          <mxGeometry x="302" y="377" width="94" height="54" as="geometry" />
        </mxCell>
        <mxCell id="7jdN5EIBADQZFfxnS79Z-65" value="解决问题" style="whiteSpace=wrap;strokeWidth=2;" vertex="1" parent="1">
          <mxGeometry x="409" y="720" width="124" height="54" as="geometry" />
        </mxCell>
        <mxCell id="7jdN5EIBADQZFfxnS79Z-66" value="加强农村网络基础设施建设" style="rounded=1;arcSize=20;strokeWidth=2" vertex="1" parent="1">
          <mxGeometry x="-536" y="847" width="222" height="54" as="geometry" />
        </mxCell>
        <mxCell id="7jdN5EIBADQZFfxnS79Z-67" value="优化农产品供应链" style="rounded=1;arcSize=20;strokeWidth=2" vertex="1" parent="1">
          <mxGeometry x="-264" y="847" width="158" height="54" as="geometry" />
        </mxCell>
        <mxCell id="7jdN5EIBADQZFfxnS79Z-68" value="培育农村电商人才" style="rounded=1;arcSize=20;strokeWidth=2" vertex="1" parent="1">
          <mxGeometry x="-56" y="847" width="158" height="54" as="geometry" />
        </mxCell>
        <mxCell id="7jdN5EIBADQZFfxnS79Z-69" value="完善政策支持与市场机制" style="rounded=1;arcSize=20;strokeWidth=2" vertex="1" parent="1">
          <mxGeometry x="152" y="847" width="206" height="54" as="geometry" />
        </mxCell>
        <mxCell id="7jdN5EIBADQZFfxnS79Z-70" value="成功案例介绍" style="rounded=1;arcSize=20;strokeWidth=2" vertex="1" parent="1">
          <mxGeometry x="408" y="847" width="126" height="54" as="geometry" />
        </mxCell>
        <mxCell id="7jdN5EIBADQZFfxnS79Z-71" value="案例启示" style="rounded=1;arcSize=20;strokeWidth=2" vertex="1" parent="1">
          <mxGeometry x="584" y="847" width="94" height="54" as="geometry" />
        </mxCell>
        <mxCell id="7jdN5EIBADQZFfxnS79Z-72" value="新时代创新思路研究" style="rounded=1;arcSize=20;strokeWidth=2" vertex="1" parent="1">
          <mxGeometry x="728" y="847" width="174" height="54" as="geometry" />
        </mxCell>
        <mxCell id="7jdN5EIBADQZFfxnS79Z-73" value="技术发展对电商助农的影响" style="rounded=1;arcSize=20;strokeWidth=2" vertex="1" parent="1">
          <mxGeometry x="952" y="847" width="222" height="54" as="geometry" />
        </mxCell>
        <mxCell id="7jdN5EIBADQZFfxnS79Z-74" value="政策导向对电商助农的影响" style="rounded=1;arcSize=20;strokeWidth=2" vertex="1" parent="1">
          <mxGeometry x="1224" y="847" width="222" height="54" as="geometry" />
        </mxCell>
        <mxCell id="7jdN5EIBADQZFfxnS79Z-75" value="结语" style="whiteSpace=wrap;strokeWidth=2;" vertex="1" parent="1">
          <mxGeometry x="583" y="720" width="92" height="54" as="geometry" />
        </mxCell>
        <mxCell id="7jdN5EIBADQZFfxnS79Z-76" value="导言" style="startArrow=none;endArrow=none;exitX=0.5;exitY=1;entryX=0.5;entryY=-0.01;rounded=0;edgeStyle=elbowEdgeStyle;exitDx=0;exitDy=0;elbow=vertical;startFill=0;" edge="1" parent="1" source="7jdN5EIBADQZFfxnS79Z-51" target="7jdN5EIBADQZFfxnS79Z-52">
          <mxGeometry relative="1" as="geometry" />
        </mxCell>
        <mxCell id="7jdN5EIBADQZFfxnS79Z-77" value="" style="startArrow=none;endArrow=none;exitX=0.5;exitY=1;entryX=0.5;entryY=-0.01;rounded=0;edgeStyle=elbowEdgeStyle;exitDx=0;exitDy=0;elbow=vertical;startFill=0;" edge="1" parent="1" source="7jdN5EIBADQZFfxnS79Z-51" target="7jdN5EIBADQZFfxnS79Z-53">
          <mxGeometry relative="1" as="geometry" />
        </mxCell>
        <mxCell id="7jdN5EIBADQZFfxnS79Z-78" value="" style="startArrow=none;endArrow=none;exitX=0.5;exitY=1;entryX=0.5;entryY=-0.01;rounded=0;edgeStyle=elbowEdgeStyle;elbow=vertical;startFill=0;" edge="1" parent="1" source="7jdN5EIBADQZFfxnS79Z-51" target="7jdN5EIBADQZFfxnS79Z-54">
          <mxGeometry relative="1" as="geometry" />
        </mxCell>
        <mxCell id="7jdN5EIBADQZFfxnS79Z-79" value="" style="startArrow=none;endArrow=none;exitX=0.5;exitY=1;entryX=0.5;entryY=-0.01;rounded=0;edgeStyle=elbowEdgeStyle;exitDx=0;exitDy=0;elbow=vertical;startFill=0;" edge="1" parent="1" source="7jdN5EIBADQZFfxnS79Z-51" target="7jdN5EIBADQZFfxnS79Z-55">
          <mxGeometry relative="1" as="geometry" />
        </mxCell>
        <mxCell id="7jdN5EIBADQZFfxnS79Z-80" value="" style="startArrow=none;endArrow=none;entryX=0.5;entryY=-0.01;rounded=0;edgeStyle=elbowEdgeStyle;exitX=0.5;exitY=1;exitDx=0;exitDy=0;elbow=vertical;startFill=0;" edge="1" parent="1" source="7jdN5EIBADQZFfxnS79Z-51" target="7jdN5EIBADQZFfxnS79Z-56">
          <mxGeometry relative="1" as="geometry">
            <mxPoint x="210" y="90" as="sourcePoint" />
          </mxGeometry>
        </mxCell>
        <mxCell id="7jdN5EIBADQZFfxnS79Z-82" value="" style="startArrow=none;endArrow=none;entryX=0.5;entryY=-0.01;rounded=0;edgeStyle=elbowEdgeStyle;startFill=0;elbow=vertical;fillColor=#dae8fc;strokeColor=#6c8ebf;" edge="1" parent="1" source="7jdN5EIBADQZFfxnS79Z-57" target="7jdN5EIBADQZFfxnS79Z-59">
          <mxGeometry relative="1" as="geometry" />
        </mxCell>
        <mxCell id="7jdN5EIBADQZFfxnS79Z-87" value="电商助农发展途径" style="startArrow=none;endArrow=block;exitX=0.5;exitY=1;entryX=0.5;entryY=-0.01;rounded=0;edgeStyle=elbowEdgeStyle;elbow=vertical;exitDx=0;exitDy=0;" edge="1" parent="1" source="7jdN5EIBADQZFfxnS79Z-65" target="7jdN5EIBADQZFfxnS79Z-66">
          <mxGeometry relative="1" as="geometry">
            <Array as="points">
              <mxPoint x="24" y="810" />
            </Array>
          </mxGeometry>
        </mxCell>
        <mxCell id="7jdN5EIBADQZFfxnS79Z-88" value="" style="startArrow=none;endArrow=block;entryX=0.5;entryY=-0.01;rounded=0;edgeStyle=elbowEdgeStyle;elbow=vertical;" edge="1" parent="1" source="7jdN5EIBADQZFfxnS79Z-65" target="7jdN5EIBADQZFfxnS79Z-67">
          <mxGeometry relative="1" as="geometry">
            <Array as="points">
              <mxPoint x="144" y="810" />
            </Array>
          </mxGeometry>
        </mxCell>
        <mxCell id="7jdN5EIBADQZFfxnS79Z-89" value="" style="startArrow=none;endArrow=block;exitX=0.5;exitY=1;entryX=0.5;entryY=-0.01;rounded=0;edgeStyle=elbowEdgeStyle;elbow=vertical;exitDx=0;exitDy=0;" edge="1" parent="1" source="7jdN5EIBADQZFfxnS79Z-65" target="7jdN5EIBADQZFfxnS79Z-68">
          <mxGeometry relative="1" as="geometry">
            <Array as="points">
              <mxPoint x="254" y="810" />
            </Array>
          </mxGeometry>
        </mxCell>
        <mxCell id="7jdN5EIBADQZFfxnS79Z-90" value="" style="startArrow=none;endArrow=block;exitX=0.5;exitY=1;entryX=0.5;entryY=-0.01;rounded=0;edgeStyle=elbowEdgeStyle;elbow=vertical;exitDx=0;exitDy=0;" edge="1" parent="1" source="7jdN5EIBADQZFfxnS79Z-65" target="7jdN5EIBADQZFfxnS79Z-69">
          <mxGeometry relative="1" as="geometry">
            <Array as="points">
              <mxPoint x="364" y="810" />
            </Array>
          </mxGeometry>
        </mxCell>
        <mxCell id="7jdN5EIBADQZFfxnS79Z-91" value="案例分析" style="startArrow=none;endArrow=block;exitX=0.5;exitY=1;entryX=0.5;entryY=-0.01;rounded=0;edgeStyle=elbowEdgeStyle;elbow=vertical;" edge="1" parent="1" source="7jdN5EIBADQZFfxnS79Z-65" target="7jdN5EIBADQZFfxnS79Z-70">
          <mxGeometry relative="1" as="geometry" />
        </mxCell>
        <mxCell id="7jdN5EIBADQZFfxnS79Z-92" value="" style="startArrow=none;endArrow=block;exitX=0.5;exitY=1;entryX=0.5;entryY=-0.01;rounded=0;edgeStyle=elbowEdgeStyle;elbow=vertical;exitDx=0;exitDy=0;" edge="1" parent="1" source="7jdN5EIBADQZFfxnS79Z-65" target="7jdN5EIBADQZFfxnS79Z-71">
          <mxGeometry relative="1" as="geometry">
            <Array as="points">
              <mxPoint x="544" y="810" />
            </Array>
          </mxGeometry>
        </mxCell>
        <mxCell id="7jdN5EIBADQZFfxnS79Z-93" value="" style="startArrow=none;endArrow=block;exitX=0.5;exitY=1;entryX=0.5;entryY=-0.01;rounded=0;edgeStyle=elbowEdgeStyle;elbow=vertical;exitDx=0;exitDy=0;" edge="1" parent="1" source="7jdN5EIBADQZFfxnS79Z-65" target="7jdN5EIBADQZFfxnS79Z-72">
          <mxGeometry relative="1" as="geometry">
            <Array as="points">
              <mxPoint x="644" y="810" />
            </Array>
          </mxGeometry>
        </mxCell>
        <mxCell id="7jdN5EIBADQZFfxnS79Z-94" value="发展前景预测" style="startArrow=none;endArrow=block;entryX=0.5;entryY=-0.01;rounded=0;edgeStyle=elbowEdgeStyle;elbow=vertical;" edge="1" parent="1" source="7jdN5EIBADQZFfxnS79Z-65" target="7jdN5EIBADQZFfxnS79Z-73">
          <mxGeometry relative="1" as="geometry">
            <Array as="points">
              <mxPoint x="764" y="810" />
            </Array>
          </mxGeometry>
        </mxCell>
        <mxCell id="7jdN5EIBADQZFfxnS79Z-95" value="" style="startArrow=none;endArrow=block;exitX=0.5;exitY=1;entryX=0.5;entryY=-0.01;rounded=0;edgeStyle=elbowEdgeStyle;elbow=vertical;exitDx=0;exitDy=0;" edge="1" parent="1" source="7jdN5EIBADQZFfxnS79Z-65" target="7jdN5EIBADQZFfxnS79Z-74">
          <mxGeometry relative="1" as="geometry">
            <Array as="points">
              <mxPoint x="904" y="810" />
            </Array>
          </mxGeometry>
        </mxCell>
        <mxCell id="7jdN5EIBADQZFfxnS79Z-96" value="问题分析" style="whiteSpace=wrap;strokeWidth=2;" vertex="1" parent="1">
          <mxGeometry x="159" y="470" width="124" height="54" as="geometry" />
        </mxCell>
        <mxCell id="7jdN5EIBADQZFfxnS79Z-97" value="农村网络基础设施不足" style="rounded=1;arcSize=20;strokeWidth=2" vertex="1" parent="1">
          <mxGeometry x="-190" y="597" width="190" height="54" as="geometry" />
        </mxCell>
        <mxCell id="7jdN5EIBADQZFfxnS79Z-98" value="农产品上行难题" style="rounded=1;arcSize=20;strokeWidth=2" vertex="1" parent="1">
          <mxGeometry x="50" y="597" width="142" height="54" as="geometry" />
        </mxCell>
        <mxCell id="7jdN5EIBADQZFfxnS79Z-99" value="农村电商人才缺乏" style="rounded=1;arcSize=20;strokeWidth=2" vertex="1" parent="1">
          <mxGeometry x="242" y="597" width="158" height="54" as="geometry" />
        </mxCell>
        <mxCell id="7jdN5EIBADQZFfxnS79Z-100" value="政策支持与市场机制不完善" style="rounded=1;arcSize=20;strokeWidth=2" vertex="1" parent="1">
          <mxGeometry x="450" y="597" width="222" height="54" as="geometry" />
        </mxCell>
        <mxCell id="7jdN5EIBADQZFfxnS79Z-101" value="电商助农发展困境" style="startArrow=none;endArrow=block;exitX=0.5;exitY=1;entryX=0.5;entryY=-0.01;rounded=0;edgeStyle=elbowEdgeStyle;exitDx=0;exitDy=0;elbow=vertical;" edge="1" parent="1" source="7jdN5EIBADQZFfxnS79Z-96" target="7jdN5EIBADQZFfxnS79Z-97">
          <mxGeometry relative="1" as="geometry" />
        </mxCell>
        <mxCell id="7jdN5EIBADQZFfxnS79Z-102" value="" style="startArrow=none;endArrow=block;exitX=0.5;exitY=1;entryX=0.5;entryY=-0.01;rounded=0;edgeStyle=elbowEdgeStyle;exitDx=0;exitDy=0;elbow=vertical;" edge="1" parent="1" source="7jdN5EIBADQZFfxnS79Z-96" target="7jdN5EIBADQZFfxnS79Z-98">
          <mxGeometry relative="1" as="geometry" />
        </mxCell>
        <mxCell id="7jdN5EIBADQZFfxnS79Z-103" value="" style="startArrow=none;endArrow=block;exitX=0.5;exitY=1;entryX=0.5;entryY=-0.01;rounded=0;edgeStyle=elbowEdgeStyle;exitDx=0;exitDy=0;elbow=vertical;" edge="1" parent="1" source="7jdN5EIBADQZFfxnS79Z-96" target="7jdN5EIBADQZFfxnS79Z-99">
          <mxGeometry relative="1" as="geometry" />
        </mxCell>
        <mxCell id="7jdN5EIBADQZFfxnS79Z-104" value="" style="startArrow=none;endArrow=block;exitX=0.5;exitY=1;entryX=0.5;entryY=-0.01;rounded=0;edgeStyle=elbowEdgeStyle;exitDx=0;exitDy=0;elbow=vertical;" edge="1" parent="1" source="7jdN5EIBADQZFfxnS79Z-96" target="7jdN5EIBADQZFfxnS79Z-100">
          <mxGeometry relative="1" as="geometry" />
        </mxCell>
        <mxCell id="7jdN5EIBADQZFfxnS79Z-108" value="" style="shape=mxgraph.arrows.arrow_down;html=1;verticalLabelPosition=bottom;verticalAlign=top;strokeWidth=2;strokeColor=#000000;" vertex="1" parent="1">
          <mxGeometry x="455" y="421" width="40" height="49" as="geometry" />
        </mxCell>
      </root>
    </mxGraphModel>
  </diagram>
</mxfile>
